<svg width="512" height="512" xmlns="http://www.w3.org/2000/svg">
 <g>
  <title>Layer 1</title>
  <path fill="#fff" stroke="#000" opacity="NaN" d="m735.5,49" id="svg_6"/>
  <g id="svg_1">
   <path d="m253.31328,78.34375c145.89309,13.78125 229.26057,110.25 222.31328,399.65625l-319.57534,0c0,-124.03125 138.9458,-89.57813 111.15664,-289.40625" fill="#ffffff" id="svg_2" stroke="#000000" stroke-width="12"/>
   <path d="m276.10244,194.59375c5.27994,40.10344 -77.11492,101.56781 -111.15664,124.03125c-41.68374,27.5625 -39.18272,59.81063 -69.4729,55.125c-14.47815,-12.95437 19.59136,-41.895 0,-41.34375c-13.89458,0 2.63997,16.95094 -13.89458,27.5625c-13.89458,0 -55.62,13.78125 -55.57832,-55.125c0,-27.5625 83.36748,-165.375 83.36748,-165.375c0,0 26.26076,-26.18437 27.78916,-48.23438c-10.14304,-13.69856 -6.94729,-27.5625 -6.94729,-41.34375c13.89458,-13.78125 41.68374,34.45313 41.68374,34.45313l27.78916,0c0,0 10.83777,-27.45225 34.73645,-41.34375c13.89458,0 13.89458,41.34375 13.89458,41.34375" fill="#ffffff" id="svg_3" stroke="#000000" stroke-width="12"/>
   <path d="m81.63103,289.95313a6.94729,6.89063 0 1 1 -13.89458,0a6.94729,6.89063 0 1 1 13.89458,0z" fill="#000000" id="svg_4" stroke="#000000" stroke-width="4"/>
   <path d="m157.12028,156.58594a6.01635,17.90184 0 1 1 -12.03271,-6.89063a6.01635,17.90184 0 1 1 12.03271,6.89063z" fill="#000000" id="svg_5" stroke="#000000" stroke-width="7"/>
  </g>
  <path id="svg_7" d="m-268,-73" opacity="NaN" stroke-width="4" stroke="#000000" fill="#000000"/>
 </g>

</svg>